<svg width="26" height="33" viewBox="0 0 26 33" fill="none" xmlns="http://www.w3.org/2000/svg">
<path d="M12.9231 32.0088C12.7622 32.0088 12.6003 31.9756 12.4519 31.9072C5.63911 28.8262 0 25.5011 0 16.0042V5.00099C0 4.57997 0.282881 4.20484 0.708827 4.06127L12.555 0.0600685C12.7927 -0.0200228 13.0535 -0.0200228 13.2911 0.0600685L25.1373 4.06121C25.5633 4.20478 25.8461 4.57992 25.8461 5.00093V16.0041C25.8461 25.501 20.207 28.8262 13.3942 31.9072C13.2459 31.9756 13.084 32.0088 12.9231 32.0088ZM2.15387 5.70137V16.0042C2.15387 23.4663 5.78005 26.601 12.9231 29.893C20.0661 26.601 23.6923 23.4663 23.6923 16.0042V5.70137L12.9231 2.06456L2.15387 5.70137Z" fill="white"/>
<path d="M10.4603 18.4785L7.15804 15.4115L5.72198 16.7453L10.4603 21.1465L20.1469 12.1493L18.7109 10.8154L10.4603 18.4785Z" fill="white"/>
</svg>
